<svg height="113.029" viewBox="0 0 124.586 113.029" width="124.586" xmlns="http://www.w3.org/2000/svg"><g fill="#018f9c"><path d="m1010 328.6c-.741.293-1.473.611-2.224.872-1.448.506-2.889 1.051-4.368 1.445a31.824 31.824 0 0 1 -4.279.835 29.1 29.1 0 0 1 -11.8-1.146c-1.323-.385-2.618-.867-3.937-1.264a13.635 13.635 0 0 0 -3.659-.255l-.069.123a2.711 2.711 0 0 0 .321.318c1.367.96 2.735 1.913 4.1 2.872q3.68 2.581 7.361 5.162c.27.187.353.334.11.612-.355.406-.683.835-1.009 1.263a.326.326 0 0 1 -.474.1 22.9 22.9 0 0 1 -4.739-2.8c-1.048-.875-2.041-1.815-3.039-2.748a20.6 20.6 0 0 0 -3.335-2.757c-2.4-1.443-4.121-1.311-6.457.4a34.7 34.7 0 0 0 -3.661 3.23 22.585 22.585 0 0 1 -6.381 4.419c-.822.378-.823.368-1.38-.354-.272-.351-.552-.7-.872-1.1l3.094-2.175c1.011-.71 2.02-1.424 3.032-2.131s2.065-1.406 3.072-2.146c.978-.719 2.044-1.324 2.955-2.134l-.052-.109c-.1-.015-.194-.039-.292-.044a13.243 13.243 0 0 0 -5.513.9 31.374 31.374 0 0 1 -8.792 1.874 26.184 26.184 0 0 1 -7.362-.512 41.2 41.2 0 0 1 -6.853-2.171c-.494-.2-.986-.4-1.48-.592l-.017-.114c1.086-.581 2.155-1.193 3.257-1.737a29.768 29.768 0 0 1 5.765-2.114 28.056 28.056 0 0 1 8.36-.824 23.766 23.766 0 0 1 5.9 1.111c2.23.691 4.488 1.3 6.728 1.963 1.157.344 2.3.723 3.451 1.1a1.685 1.685 0 0 0 1.073.008q4.784-1.454 9.578-2.882c1.017-.3 2.033-.626 3.07-.849a24.032 24.032 0 0 1 6.154-.46 28.257 28.257 0 0 1 11.078 2.791c1.218.583 2.4 1.242 3.6 1.866z" transform="translate(-913.722 -226.565)"/><path d="m940.071 200.336c.365 1.163.779 2.313 1.081 3.492.332 1.294.609 2.607.823 3.927a24.368 24.368 0 0 1 .176 6.443 17.91 17.91 0 0 1 -.874 4.554c-.584 1.546-1.237 3.069-1.929 4.57a26.775 26.775 0 0 1 -3.363 5.642 8.558 8.558 0 0 1 -1.428 1.338c-.452.353-.782.258-.917-.288a14.924 14.924 0 0 1 -.438-2.55 45.422 45.422 0 0 1 .208-7.472 55.1 55.1 0 0 1 .668-5.509 52.772 52.772 0 0 1 1.622-5.916 42.883 42.883 0 0 1 1.789-4.373 16.866 16.866 0 0 1 2.313-3.7 2.206 2.206 0 0 0 .131-.195z" transform="translate(-911.833 -200.295)"/><path d="m1028.043 200.293c.546.815 1.144 1.6 1.628 2.449a36.729 36.729 0 0 1 3.985 10.784 44.278 44.278 0 0 1 .771 5.453c.2 2.47.295 4.951.338 7.429a19.153 19.153 0 0 1 -.335 3.2c-.145.962-.6 1.155-1.32.516a11.2 11.2 0 0 1 -1.727-1.929 40.092 40.092 0 0 1 -4-7.5 19.694 19.694 0 0 1 -1.433-5.062 27.7 27.7 0 0 1 -.185-6.291 35.024 35.024 0 0 1 2.031-8.717c.036-.1.076-.19.114-.286z" transform="translate(-931.523 -200.293)"/><path d="m933.639 255.416c-.117-1.006-.3-1.913-.311-2.824a22.758 22.758 0 0 1 1.111-6.778 41.993 41.993 0 0 1 3.148-7.807 27.706 27.706 0 0 1 8.5-9.795c.106-.075.218-.143.412-.269.084.472.183.894.232 1.322a19.6 19.6 0 0 1 -.587 6.718 37.14 37.14 0 0 1 -2.8 7.975 25.979 25.979 0 0 1 -7.433 9.512c-.753.571-1.437 1.23-2.272 1.946z" transform="translate(-911.875 -206.176)"/><path d="m1033.03 255.328c-1-.845-1.969-1.689-2.962-2.5a25.045 25.045 0 0 1 -6.175-7.946 36.442 36.442 0 0 1 -3.68-10.932 15.048 15.048 0 0 1 -.029-5.64 1.341 1.341 0 0 1 .051-.189.91.91 0 0 1 .081-.138c.21.14.416.269.613.413a27.867 27.867 0 0 1 7.142 7.7 33.874 33.874 0 0 1 2.748 5.445 36.056 36.056 0 0 1 2.441 8.538 12.857 12.857 0 0 1 -.133 4.969c-.027.099-.065.192-.097.28z" transform="translate(-930.302 -206.185)"/><path d="m911.875 239.634c.69.383 1.4.7 2.029 1.137a36.949 36.949 0 0 1 9.6 9.677 10.781 10.781 0 0 1 1.515 3.058c.277.982.455 1.992.672 2.991q.727 3.343 1.449 6.688c.089.42.154.847.251 1.386a8.175 8.175 0 0 1 -1.034-.207 10.118 10.118 0 0 1 -3.454-2.226 41.15 41.15 0 0 1 -7.418-9.1 20.078 20.078 0 0 1 -2.862-8.1c-.223-1.738-.489-3.475-.748-5.304z" transform="translate(-907.311 -208.664)"/><path d="m1054.379 239.7c-.4 2.513-.745 4.979-1.2 7.423a16.146 16.146 0 0 1 -1.89 4.945 41.617 41.617 0 0 1 -7.259 9.428 13.325 13.325 0 0 1 -3.593 2.657 2.934 2.934 0 0 1 -1.594.37c.084-.466.149-.9.24-1.333.354-1.667.718-3.332 1.079-5 .319-1.487.589-2.986.971-4.457a11.786 11.786 0 0 1 1.917-3.773 38.134 38.134 0 0 1 7.158-7.611 17.249 17.249 0 0 1 3.555-2.387c.188-.088.382-.162.616-.262z" transform="translate(-934.327 -208.678)"/><path d="m928.485 282.526c-.709-.123-1.346-.188-1.958-.348a27.38 27.38 0 0 1 -5.426-2.11c-1.627-.823-3.253-1.668-4.787-2.646a22.938 22.938 0 0 1 -5.342-5.093 27.612 27.612 0 0 1 -3.786-5.97c-.394-.87-.742-1.76-1.109-2.641l.076-.136c.587.078 1.185.115 1.762.242a22.42 22.42 0 0 1 5.52 2.071c1.49.77 2.958 1.593 4.386 2.473a20.181 20.181 0 0 1 4.016 3.588 34.137 34.137 0 0 1 4.256 5.658 29.122 29.122 0 0 1 2.392 4.912z" transform="translate(-906.077 -213.76)"/><path d="m1058.28 263.661c-.332.847-.606 1.655-.958 2.426a27.149 27.149 0 0 1 -2.722 4.649 26.685 26.685 0 0 1 -6.552 6.7 35.257 35.257 0 0 1 -6.01 3.2c-1.314.558-2.664 1.045-4.019 1.493a16.214 16.214 0 0 1 -2.064.408l-.083-.129c.443-.964.849-1.944 1.333-2.887a33.531 33.531 0 0 1 4.858-7.054 23.407 23.407 0 0 1 4.621-4.206 34.549 34.549 0 0 1 6.133-3.206c1.063-.416 2.144-.786 3.234-1.119a11.855 11.855 0 0 1 1.706-.294 3.025 3.025 0 0 1 .523.019z" transform="translate(-933.694 -213.77)"/><path d="m919.443 214.89c.408.487.764.938 1.145 1.366.8.9 1.623 1.791 2.431 2.688a14.392 14.392 0 0 1 2.981 4.967c.495 1.427 1.118 2.813 1.564 4.254a25.621 25.621 0 0 1 .848 3.753 33.808 33.808 0 0 1 .251 6.372 15.654 15.654 0 0 1 -.543 3.889c-.092.309-.234.6-.373.953-.535-.7-1.024-1.347-1.521-1.988-.933-1.2-1.918-2.37-2.8-3.615a23.876 23.876 0 0 1 -2.677-5.471c-.368-.984-.721-1.974-1.11-2.951a14.926 14.926 0 0 1 -.927-4.094 32.8 32.8 0 0 1 .011-7.123c.1-.894.353-1.772.545-2.656a1.773 1.773 0 0 1 .175-.344z" transform="translate(-908.726 -203.399)"/><path d="m1048.3 214.942c.138.484.308.962.406 1.454a27.063 27.063 0 0 1 .405 5.81 22.128 22.128 0 0 1 -.729 5.846c-.277.942-.648 1.86-1.015 2.775-.625 1.56-1.222 3.135-1.935 4.656a21.278 21.278 0 0 1 -3 4.471c-.843 1.02-1.658 2.065-2.5 3.119a4.389 4.389 0 0 1 -.608-1.778 30.076 30.076 0 0 1 -.186-8.168c.142-1.381.389-2.754.665-4.114a13.912 13.912 0 0 1 .7-1.967c.4-1.072.831-2.131 1.2-3.214a15.806 15.806 0 0 1 3.412-5.435q1.469-1.646 2.926-3.3a1.745 1.745 0 0 0 .115-.161z" transform="translate(-934.348 -203.409)"/><path d="m1048.87 286.714c-.662 1.012-1.311 2.012-1.971 3a41.174 41.174 0 0 1 -2.709 3.959 23.7 23.7 0 0 1 -7.209 5.791c-1.518.775-3.113 1.4-4.7 2.022a23.187 23.187 0 0 1 -5.113 1.421 21.732 21.732 0 0 1 -2.232.125 1.682 1.682 0 0 1 -.386-.075c.969-1.433 1.941-2.818 2.856-4.24a24.054 24.054 0 0 1 3.818-4.545 22.489 22.489 0 0 1 5.257-3.723c1.573-.788 3.157-1.565 4.787-2.221a17.9 17.9 0 0 1 7.033-1.556c.158 0 .314.006.472.012a.467.467 0 0 1 .097.03z" transform="translate(-931.285 -218.673)"/><path d="m914.854 286.694c.634 0 1.209-.04 1.777.008a18.406 18.406 0 0 1 5.267 1.283c1.646.655 3.284 1.35 4.861 2.149a24.2 24.2 0 0 1 9.607 8.535c.925 1.433 1.908 2.829 2.932 4.344-.487.018-.933.067-1.375.046a18.359 18.359 0 0 1 -4.317-.866 44.194 44.194 0 0 1 -6.689-2.665 20.434 20.434 0 0 1 -4.586-3.183 25.107 25.107 0 0 1 -2.922-2.919c-.942-1.169-1.683-2.5-2.521-3.754-.606-.9-1.228-1.8-1.843-2.7-.045-.072-.098-.141-.191-.278z" transform="translate(-907.945 -218.674)"/><path d="m1041.021 308.91a6.959 6.959 0 0 1 -1.709 2.057 22.482 22.482 0 0 1 -4.856 3.2q-2.784 1.385-5.636 2.628a16.725 16.725 0 0 1 -4.28 1.021 35.389 35.389 0 0 1 -7.621.354c-1.2-.082-2.384-.34-3.574-.525a1.348 1.348 0 0 1 -.291-.129c.12-.179.218-.344.336-.493a16.585 16.585 0 0 1 4.412-3.709 62.751 62.751 0 0 1 8.091-3.968 13.273 13.273 0 0 1 4.1-.922 48.515 48.515 0 0 1 10.791.443c.058.009.116.023.237.043z" transform="translate(-928.839 -223.271)"/><path d="m921.846 308.9c1.2-.131 2.364-.314 3.538-.374 2.014-.1 4.034-.178 6.05-.166a16.367 16.367 0 0 1 7.462 1.855c1.718.88 3.5 1.643 5.189 2.561a16.963 16.963 0 0 1 5.368 4.256c.12.15.221.315.386.553-.667.144-1.258.306-1.859.4a31.412 31.412 0 0 1 -7.463.106 23.366 23.366 0 0 1 -5.31-.9 35.315 35.315 0 0 1 -4.374-1.772c-1.64-.79-3.243-1.674-4.807-2.61a12.33 12.33 0 0 1 -3.929-3.413 2.079 2.079 0 0 1 -.148-.231 2.513 2.513 0 0 1 -.103-.265z" transform="translate(-909.433 -223.286)"/><path d="m959.03 311.363c.025.432.063.864.067 1.3 0 .148-.084.424-.135.426a.87.87 0 0 1 -.564-.143c-.662-.6-1.269-1.254-1.942-1.836-.735-.635-1.533-1.2-2.281-1.816a15.673 15.673 0 0 1 -3.313-3.883c-.834-1.353-1.75-2.658-2.506-4.053a35.164 35.164 0 0 1 -1.593-3.639c-.371-.925-.7-1.87-.987-2.824a14.629 14.629 0 0 1 -.6-3.879c-.026-1.129-.081-2.257-.107-3.387a.388.388 0 0 1 .176-.312.51.51 0 0 1 .433.065 35.239 35.239 0 0 0 3.875 3.582 23.313 23.313 0 0 1 4.184 4.318 29.4 29.4 0 0 1 2.629 5.019c.7 1.658 1.3 3.355 1.961 5.027a10.4 10.4 0 0 1 .57 3.046c.079.995.1 1.994.144 2.991z" transform="translate(-914.374 -218.805)"/><path d="m1021.542 288.988a23.155 23.155 0 0 1 -.609 5.587c-.236.874-.54 1.73-.849 2.582a21.275 21.275 0 0 1 -.981 2.446c-.732 1.437-1.483 2.87-2.337 4.236a43.577 43.577 0 0 1 -2.7 3.828 20.5 20.5 0 0 1 -3.376 3.012c-.832.678-1.595 1.439-2.388 2.165-.067.062-.117.174-.19.192a1.031 1.031 0 0 1 -.49.024c-.063-.017-.116-.222-.107-.337.148-2.119.243-4.245.492-6.354a11.677 11.677 0 0 1 .811-2.5 50.3 50.3 0 0 1 3.289-7.366 16.318 16.318 0 0 1 3.542-4.3q2.389-2.117 4.76-4.255a2.969 2.969 0 0 0 .464-.535c.14-.21.318-.254.493-.12a.574.574 0 0 1 .167.4c.022.427.009.861.009 1.295z" transform="translate(-927.661 -218.788)"/><path d="m945.363 256.081a4.378 4.378 0 0 1 .779 2.094 26.089 26.089 0 0 1 .458 7.135 36.49 36.49 0 0 1 -2.179 10.653 20.369 20.369 0 0 1 -2.453 4.791 7.987 7.987 0 0 1 -2.776 2.558 9.8 9.8 0 0 1 -.546-1.394c-.289-1.254-.569-2.514-.76-3.785a19.75 19.75 0 0 1 -.217-5.1c.143-1.265.284-2.535.539-3.78a23.93 23.93 0 0 1 1.933-5.569 27.838 27.838 0 0 1 5.067-7.371 1.912 1.912 0 0 0 .155-.232z" transform="translate(-912.781 -212.163)"/><path d="m1022.524 256.089a26.466 26.466 0 0 1 3.093 3.775 27.88 27.88 0 0 1 3.657 7.558 25 25 0 0 1 1.007 5.29 25.806 25.806 0 0 1 -.75 8.122c-.152.662-.349 1.314-.542 1.965a3.063 3.063 0 0 1 -.29.524c-.426-.308-.851-.566-1.217-.89a12.754 12.754 0 0 1 -2.915-4.079 33.95 33.95 0 0 1 -3.089-11.548 29.606 29.606 0 0 1 -.046-6.095c.129-1.237.4-2.462.641-3.685a4.41 4.41 0 0 1 .451-.937z" transform="translate(-930.594 -212.165)"/></g></svg>