<svg xmlns="http://www.w3.org/2000/svg" width="20.333" height="17.916" viewBox="0 0 20.333 17.916"><defs><style>.a{fill:none;stroke:#00a5fc;}</style></defs><path class="a" d="M18.278,6.273V3.856H6.2V6.273H2.571V8.689a3.627,3.627,0,0,0,4.713,3.459,6.044,6.044,0,0,0,3.745,2.462v3.746H9.82A2.417,2.417,0,0,0,7.4,20.772H17.07a2.417,2.417,0,0,0-2.417-2.417H13.445V14.61a6.044,6.044,0,0,0,3.745-2.462A3.627,3.627,0,0,0,21.9,8.689V6.273ZM6.2,10.879a2.193,2.193,0,0,1-2.19-2.19V7.481H6.2V8.689a6.027,6.027,0,0,0,.4,2.154A2.193,2.193,0,0,1,6.2,10.879Zm14.273-2.19a2.188,2.188,0,0,1-2.586,2.154,6.027,6.027,0,0,0,.4-2.154V7.481h2.19V8.689Z" transform="translate(-2.071 -3.356)"/></svg>