<svg xmlns="http://www.w3.org/2000/svg" width="22.277" height="18.5" viewBox="0 0 22.277 18.5">
  <g id="Grupo_2891" data-name="Grupo 2891" transform="translate(-9613.25 1266.75)">
    <path id="Caminho_2679" data-name="Caminho 2679" d="M22.278,19.611A1.889,1.889,0,0,1,20.389,21.5h-17A1.889,1.889,0,0,1,1.5,19.611V9.222A1.889,1.889,0,0,1,3.389,7.333H7.167L9.056,4.5h5.667l1.889,2.833h3.778a1.889,1.889,0,0,1,1.889,1.889Z" transform="translate(9612.5 -1270.5)" fill="none" stroke="#fff" stroke-linecap="round" stroke-linejoin="round" stroke-width="1.5"/>
    <path id="Caminho_2680" data-name="Caminho 2680" d="M19.556,17.278A3.778,3.778,0,1,1,15.778,13.5,3.778,3.778,0,0,1,19.556,17.278Z" transform="translate(9608.611 -1273.833)" fill="none" stroke="#fff" stroke-linecap="round" stroke-linejoin="round" stroke-width="1.5"/>
  </g>
</svg>
