<svg xmlns="http://www.w3.org/2000/svg" width="65.788" height="65.788" viewBox="0 0 65.788 65.788">
  <g id="Icon_feather-image" data-name="Icon feather-image" transform="translate(-3 -3)">
    <path id="Caminho_435" data-name="Caminho 435" d="M11.407,4.5H59.759a6.907,6.907,0,0,1,6.907,6.907V59.759a6.907,6.907,0,0,1-6.907,6.907H11.407A6.907,6.907,0,0,1,4.5,59.759V11.407A6.907,6.907,0,0,1,11.407,4.5Z" transform="translate(0 0)" fill="none" stroke="#fff" stroke-linecap="round" stroke-linejoin="round" stroke-width="3"/>
    <path id="Caminho_436" data-name="Caminho 436" d="M20.861,15.681A5.181,5.181,0,1,1,15.681,10.5,5.181,5.181,0,0,1,20.861,15.681Z" transform="translate(7.815 7.815)" fill="none" stroke="#fff" stroke-linecap="round" stroke-linejoin="round" stroke-width="3"/>
    <path id="Caminho_437" data-name="Caminho 437" d="M62.759,32.269,45.491,15,7.5,52.991" transform="translate(3.907 13.676)" fill="none" stroke="#fff" stroke-linecap="round" stroke-linejoin="round" stroke-width="3"/>
  </g>
</svg>
