<svg height="29.5" viewBox="0 0 27.656 29.5" width="27.656" xmlns="http://www.w3.org/2000/svg"><g fill="#fff" stroke="#003694" stroke-linecap="round" stroke-linejoin="round" stroke-width="1.5"><path d="m.349 0h25.458a.349.349 0 0 1 .349.349v16.987a3 3 0 0 1 -3 3h-20.156a3 3 0 0 1 -3-3v-16.987a.349.349 0 0 1 .349-.349z" transform="translate(.75 8.414)"/><path d="m234.712 525.272-3.712 3.544v4.12h3.714z" transform="translate(-226.578 -524.521)"/><path d="m239.017 525.272 3.714 3.544v4.12h-3.714z" transform="translate(-219.512 -524.521)"/><path d="m8.133.75h11.372v3.832h-11.372z"/></g><path d="m239.507 536.314h-.5a3.666 3.666 0 0 0 -3.2-1.9 3.587 3.587 0 0 0 -3.6 3.57v.03a3.62 3.62 0 0 0 6.806 1.795h.5a3.661 3.661 0 0 0 3.2 1.9 3.6 3.6 0 1 0 0-7.2 3.4 3.4 0 0 0 -3.206 1.805z" fill="#003694" transform="translate(-225.427 -519.663)"/></svg>