<svg xmlns="http://www.w3.org/2000/svg" width="25.164" height="26.832" viewBox="0 0 25.164 26.832">
  <g id="Grupo_6698" data-name="Grupo 6698" transform="translate(0.75 0.75)">
    <g id="Grupo_1169" data-name="Grupo 1169" transform="translate(0 0)">
      <path id="Ret창ngulo_656" data-name="Ret창ngulo 656" d="M.349,0H23.315a.349.349,0,0,1,.349.349V15.4a3,3,0,0,1-3,3H3a3,3,0,0,1-3-3V.349A.349.349,0,0,1,.349,0Z" transform="translate(0 6.934)" fill="none" stroke="#3a4046" stroke-linecap="round" stroke-linejoin="round" stroke-width="1.5"/>
      <path id="Caminho_1162" data-name="Caminho 1162" d="M234.358,525.272,231,528.478v3.727h3.36Z" transform="translate(-227.678 -525.271)" fill="none" stroke="#3a4046" stroke-linecap="round" stroke-linejoin="round" stroke-width="1.5"/>
      <path id="Caminho_1163" data-name="Caminho 1163" d="M239.017,525.272l3.36,3.207v3.727h-3.36Z" transform="translate(-222.049 -525.271)" fill="none" stroke="#3a4046" stroke-linecap="round" stroke-linejoin="round" stroke-width="1.5"/>
      <rect id="Ret창ngulo_657" data-name="Ret창ngulo 657" width="10.288" height="3.467" transform="translate(6.68)" fill="none" stroke="#3a4046" stroke-linecap="round" stroke-linejoin="round" stroke-width="1.5"/>
    </g>
    <path id="Caminho_1166" data-name="Caminho 1166" d="M238.811,536.133h-.453a3.317,3.317,0,0,0-2.9-1.72,3.245,3.245,0,0,0-3.26,3.23v.027a3.275,3.275,0,0,0,6.157,1.624h.453a3.312,3.312,0,0,0,2.9,1.72,3.257,3.257,0,1,0,0-6.513A3.072,3.072,0,0,0,238.811,536.133Z" transform="translate(-226.75 -521.747)" fill="#3a4046"/>
  </g>
</svg>
