<svg id="g2124" xmlns="http://www.w3.org/2000/svg" width="16.799" height="16" viewBox="0 0 16.799 16">
  <path id="rect2064" d="M3.145-50.676A1.151,1.151,0,0,0,2-49.53v11.312a1.151,1.151,0,0,0,1.145,1.145h12.1a1.151,1.151,0,0,0,1.145-1.145V-49.53a1.151,1.151,0,0,0-1.145-1.145Z" transform="translate(-2 53.073)" fill="#fff"/>
  <path id="rect2066" d="M7.383-56.953A1.19,1.19,0,0,0,6.2-55.769v.235a.382.382,0,0,0,.382.382.382.382,0,0,0,.382-.382v-.235a.412.412,0,0,1,.421-.421H20.212a.411.411,0,0,1,.42.421v11.118c0,.388-.277.416-.634.421a.382.382,0,0,0-.382.382.382.382,0,0,0,.382.382c.771,0,1.4-.324,1.4-1.184V-55.769a1.19,1.19,0,0,0-1.183-1.184Z" transform="translate(-4.596 56.953)" fill="#fff"/>
</svg>
