<svg xmlns="http://www.w3.org/2000/svg" width="18.646" height="16.315" viewBox="0 0 18.646 16.315">
  <path id="image" d="M16.9,4.331H4.079A1.7,1.7,0,0,0,2.331,6.079V16.567a1.7,1.7,0,0,0,1.748,1.748H16.9a1.7,1.7,0,0,0,1.748-1.748V6.079A1.7,1.7,0,0,0,16.9,4.331ZM13.984,3.165H1.748a.535.535,0,0,0-.583.59v9.9a.583.583,0,1,1-1.165,0V3.748A1.7,1.7,0,0,1,1.748,2H13.984a.583.583,0,0,1,0,1.165ZM8.157,8.409a1.748,1.748,0,1,0-1.748,1.748A1.75,1.75,0,0,0,8.157,8.409Zm-2.331,0a.583.583,0,1,1,.583.583A.584.584,0,0,1,5.827,8.409Z" transform="translate(0 -2)" fill="#003694"/>
</svg>
