<svg height="29.5" viewBox="0 0 29.5 29.5" width="29.5" xmlns="http://www.w3.org/2000/svg"><circle cx="14.75" cy="14.75" fill="none" r="14" stroke="#a3a3a3" stroke-linecap="round" stroke-linejoin="round" stroke-width="1.5"/><path d="m7.645 9.968v-.579a4.241 4.241 0 0 0 2.2-3.707 4.151 4.151 0 0 0 -4.166-4.17 4.251 4.251 0 0 0 -4.279 4.17 4.241 4.241 0 0 0 2.2 3.707v.579a4.242 4.242 0 0 0 -2.2 3.707 4.166 4.166 0 1 0 8.333 0 3.931 3.931 0 0 0 -2.088-3.707z" fill="#a3a3a3" transform="matrix(0 -1 1 0 5.238 20.094)"/></svg>