<svg height="28" viewBox="0 0 28 28" width="28" xmlns="http://www.w3.org/2000/svg"><circle cx="14" cy="14" fill="#003694" r="13.5" stroke="#fff"/><circle cx="14" cy="14" fill="#fff" r="11"/><path d="m1.734 6.106v.449a3.279 3.279 0 0 0 -1.734 2.874 3.247 3.247 0 0 0 3.286 3.233 3.326 3.326 0 0 0 3.378-3.233 3.279 3.279 0 0 0 -1.734-2.874v-.449a3.281 3.281 0 0 0 1.734-2.874 3.246 3.246 0 0 0 -3.286-3.232 3.246 3.246 0 0 0 -3.287 3.232 3.038 3.038 0 0 0 1.643 2.874z" fill="#003694" transform="matrix(0 1 -1 0 20.662 11)"/></svg>