<svg width="36" viewBox="0 0 36 85" fill="none" xmlns="http://www.w3.org/2000/svg">
<path d="M51.9091 40.2198C55.5455 35.6593 58.2727 30.1868 58.2727 23.8022C58.2727 11.033 48.2727 1 35.5455 1C22.8182 1 12.8182 11.033 12.8182 23.8022C12.8182 30.1868 15.5455 35.6593 19.1818 39.3077C9.18182 47.5165 2.81818 63.022 1 81.2637C1 82.1758 1 83.0879 1.90909 83.0879C2.81818 84 2.81818 84 3.72727 84H68.2727C69.1818 84 70.0909 84 70.0909 83.0879C71 82.1758 71 82.1758 71 81.2637C68.2727 63.9341 61.9091 48.4286 51.9091 40.2198ZM34.6364 6.47253C44.6364 6.47253 52.8182 14.6813 52.8182 24.7143C52.8182 34.7473 44.6364 42.956 34.6364 42.956C24.6364 42.956 16.4545 34.7473 16.4545 24.7143C16.4545 14.6813 25.5455 6.47253 34.6364 6.47253ZM5.54545 79.4396C7.36364 63.022 13.7273 49.3407 21.9091 42.956C25.5455 45.6923 30.0909 47.5165 34.6364 47.5165C39.1818 47.5165 43.7273 45.6923 47.3636 43.8681C55.5455 51.1648 61.9091 63.9341 63.7273 80.3516H5.54545V79.4396Z" fill="white" stroke="white" stroke-width="0.5" stroke-miterlimit="10"/>
</svg>
