<svg width="18" height="20" viewBox="0 0 18 20" fill="none" xmlns="http://www.w3.org/2000/svg">
<path d="M0.933594 20C0.502109 20 0.152344 19.6502 0.152344 19.2188C0.152344 15.2986 3.3416 12.1094 7.26172 12.1094H8.43359C9.23582 12.1094 10.0236 12.2422 10.7749 12.5041C11.1823 12.6461 11.3975 13.0916 11.2554 13.499C11.1134 13.9064 10.6679 14.1216 10.2605 13.9795C9.67492 13.7754 9.06027 13.6719 8.43359 13.6719H7.26172C4.20316 13.6719 1.71484 16.1602 1.71484 19.2188C1.71484 19.6502 1.36508 20 0.933594 20ZM13.043 5.27344C13.043 2.36566 10.6773 0 7.76953 0C4.86176 0 2.49609 2.36566 2.49609 5.27344C2.49609 8.18121 4.86176 10.5469 7.76953 10.5469C10.6773 10.5469 13.043 8.18121 13.043 5.27344ZM11.4805 5.27344C11.4805 7.31965 9.81574 8.98438 7.76953 8.98438C5.72332 8.98438 4.05859 7.31965 4.05859 5.27344C4.05859 3.22723 5.72332 1.5625 7.76953 1.5625C9.81574 1.5625 11.4805 3.22723 11.4805 5.27344ZM17.0664 15.3125H14.7227V12.9688C14.7227 12.5373 14.3729 12.1875 13.9414 12.1875C13.5099 12.1875 13.1602 12.5373 13.1602 12.9688V15.3125H10.8164C10.3849 15.3125 10.0352 15.6623 10.0352 16.0938C10.0352 16.5252 10.3849 16.875 10.8164 16.875H13.1602V19.2188C13.1602 19.6502 13.5099 20 13.9414 20C14.3729 20 14.7227 19.6502 14.7227 19.2188V16.875H17.0664C17.4979 16.875 17.8477 16.5252 17.8477 16.0938C17.8477 15.6623 17.4979 15.3125 17.0664 15.3125Z" fill="#707070"/>
</svg>
