<svg xmlns="http://www.w3.org/2000/svg" width="28" height="28" viewBox="0 0 28 28"><defs><style>.a,.c{fill:#003694;}.a{stroke:#fff;}.b{fill:#fff;}.c,.d{stroke:#003694;stroke-linecap:round;}.c{stroke-linejoin:round;stroke-width:1.5px;}.d{fill:none;}</style></defs><g transform="translate(-358.833 -696.534)"><g transform="translate(-6548.167 1700.534)"><circle class="a" cx="13.5" cy="13.5" r="13.5" transform="translate(6907.5 -1003.5)"/><g transform="translate(-0.917 -0.917)"><circle class="b" cx="11" cy="11" r="11" transform="translate(6910.917 -1000.083)"/><g transform="translate(6917.917 -994.083)"><path class="c" d="M14.738,25.777V24.685A2.185,2.185,0,0,0,12.554,22.5H8.185A2.185,2.185,0,0,0,6,24.685v1.092" transform="translate(-6 -15.946)"/><path class="c" d="M16.369,6.685A2.185,2.185,0,1,1,14.185,4.5,2.185,2.185,0,0,1,16.369,6.685Z" transform="translate(-9.815 -4.5)"/><path class="d" d="M368.194,715.029h8.836" transform="translate(-368.194 -705.029)"/></g></g></g></g></svg>